<svg width="115" height="300" viewBox="0 0 115 300" fill="none" xmlns="http://www.w3.org/2000/svg">
    <g filter="url(#filter0_d_1064_2051)">
        <rect x="11" y="15" width="50" height="250" rx="4" fill="#2E2E49"/>
    </g>
    
    <!-- filling -->
    <g>
        <rect x='11' y='220' width='50' height='45' rx='4' fill='white'/>
    </g>

    <!-- stroke -->
    <rect x="10.5" y="15.5" width="50" height="249" rx="3.5" stroke="#27273E"/>

    <!-- NUMBERS -->
    <!-- <path d="M159 295.13C158.029 295.13 157.253 294.753 156.673 293.999C156.092 293.245 155.802 292.149 155.802 290.71C155.802 289.271 156.092 288.175 156.673 287.421C157.253 286.667 158.029 286.29 159 286.29C159.979 286.29 160.755 286.667 161.327 287.421C161.907 288.175 162.198 289.271 162.198 290.71C162.198 292.149 161.907 293.245 161.327 293.999C160.755 294.753 159.979 295.13 159 295.13ZM159 294.194C159.459 294.194 159.845 294.064 160.157 293.804C160.477 293.535 160.716 293.141 160.872 292.621C161.036 292.101 161.119 291.464 161.119 290.71C161.119 289.956 161.036 289.319 160.872 288.799C160.716 288.279 160.477 287.889 160.157 287.629C159.845 287.36 159.459 287.226 159 287.226C158.54 287.226 158.15 287.36 157.83 287.629C157.518 287.889 157.279 288.279 157.115 288.799C156.959 289.319 156.881 289.956 156.881 290.71C156.881 291.464 156.959 292.101 157.115 292.621C157.279 293.141 157.518 293.535 157.83 293.804C158.15 294.064 158.54 294.194 159 294.194Z" fill="#EFEFEF"/>
    <path d="M155.128 49V42.708C155.128 42.5607 155.128 42.4047 155.128 42.24C155.136 42.0667 155.145 41.889 155.154 41.707C154.859 41.993 154.517 42.2443 154.127 42.461C153.737 42.669 153.338 42.8207 152.931 42.916L152.658 41.967C152.814 41.9497 153.009 41.8933 153.243 41.798C153.485 41.694 153.737 41.5683 153.997 41.421C154.265 41.265 154.512 41.1003 154.738 40.927C154.963 40.7537 155.136 40.5847 155.258 40.42H156.168V49H155.128ZM161.532 49.13C160.562 49.13 159.786 48.753 159.205 47.999C158.625 47.245 158.334 46.1487 158.334 44.71C158.334 43.2713 158.625 42.175 159.205 41.421C159.786 40.667 160.562 40.29 161.532 40.29C162.512 40.29 163.287 40.667 163.859 41.421C164.44 42.175 164.73 43.2713 164.73 44.71C164.73 46.1487 164.44 47.245 163.859 47.999C163.287 48.753 162.512 49.13 161.532 49.13ZM161.532 48.194C161.992 48.194 162.377 48.064 162.689 47.804C163.01 47.5353 163.248 47.141 163.404 46.621C163.569 46.101 163.651 45.464 163.651 44.71C163.651 43.956 163.569 43.319 163.404 42.799C163.248 42.279 163.01 41.889 162.689 41.629C162.377 41.3603 161.992 41.226 161.532 41.226C161.073 41.226 160.683 41.3603 160.362 41.629C160.05 41.889 159.812 42.279 159.647 42.799C159.491 43.319 159.413 43.956 159.413 44.71C159.413 45.464 159.491 46.101 159.647 46.621C159.812 47.141 160.05 47.5353 160.362 47.804C160.683 48.064 161.073 48.194 161.532 48.194Z" fill="#EFEFEF"/>
    <path d="M158.948 174.13C158.185 174.13 157.57 173.957 157.102 173.61C156.642 173.263 156.287 172.782 156.036 172.167L157.05 171.634C157.188 172.085 157.401 172.453 157.687 172.739C157.981 173.016 158.41 173.155 158.974 173.155C159.372 173.155 159.71 173.081 159.988 172.934C160.274 172.787 160.495 172.579 160.651 172.31C160.807 172.033 160.885 171.703 160.885 171.322C160.885 170.915 160.811 170.577 160.664 170.308C160.525 170.031 160.321 169.823 160.053 169.684C159.784 169.545 159.455 169.476 159.065 169.476C158.787 169.476 158.527 169.506 158.285 169.567C158.051 169.619 157.838 169.706 157.648 169.827C157.457 169.948 157.292 170.109 157.154 170.308L156.244 170.139L156.751 165.42H161.574V166.395H157.635L157.297 169.099L157.271 169.216H157.297C157.505 168.999 157.769 168.826 158.09 168.696C158.419 168.566 158.809 168.501 159.26 168.501C159.806 168.501 160.278 168.618 160.677 168.852C161.084 169.077 161.4 169.398 161.626 169.814C161.851 170.23 161.964 170.715 161.964 171.27C161.964 171.712 161.89 172.111 161.743 172.466C161.595 172.821 161.387 173.125 161.119 173.376C160.85 173.619 160.529 173.805 160.157 173.935C159.793 174.065 159.39 174.13 158.948 174.13Z" fill="#EFEFEF"/>
    <path d="M150.663 234V233.155C151.521 232.522 152.236 231.968 152.808 231.491C153.388 231.014 153.852 230.581 154.199 230.191C154.545 229.801 154.792 229.433 154.94 229.086C155.087 228.731 155.161 228.362 155.161 227.981C155.161 227.47 154.996 227.058 154.667 226.746C154.346 226.425 153.904 226.265 153.341 226.265C152.751 226.265 152.279 226.46 151.924 226.85C151.568 227.231 151.36 227.743 151.3 228.384L150.39 227.838C150.468 227.335 150.628 226.893 150.871 226.512C151.122 226.131 151.456 225.832 151.872 225.615C152.296 225.398 152.799 225.29 153.38 225.29C153.822 225.29 154.216 225.355 154.563 225.485C154.918 225.615 155.221 225.801 155.473 226.044C155.724 226.278 155.915 226.56 156.045 226.889C156.183 227.218 156.253 227.582 156.253 227.981C156.253 228.518 156.123 229.047 155.863 229.567C155.603 230.078 155.174 230.616 154.576 231.179C153.978 231.742 153.167 232.366 152.145 233.051V233.064C152.24 233.055 152.37 233.051 152.535 233.051C152.708 233.042 152.877 233.038 153.042 233.038C153.215 233.029 153.345 233.025 153.432 233.025H156.435V234H150.663ZM159.009 232.44C159.26 232.44 159.464 232.518 159.62 232.674C159.776 232.83 159.854 233.034 159.854 233.285C159.854 233.536 159.776 233.74 159.62 233.896C159.464 234.052 159.26 234.13 159.009 234.13C158.757 234.13 158.554 234.052 158.398 233.896C158.242 233.74 158.164 233.536 158.164 233.285C158.164 233.034 158.242 232.83 158.398 232.674C158.554 232.518 158.757 232.44 159.009 232.44ZM164.464 234.13C163.701 234.13 163.086 233.957 162.618 233.61C162.159 233.263 161.803 232.782 161.552 232.167L162.566 231.634C162.705 232.085 162.917 232.453 163.203 232.739C163.498 233.016 163.927 233.155 164.49 233.155C164.889 233.155 165.227 233.081 165.504 232.934C165.79 232.787 166.011 232.579 166.167 232.31C166.323 232.033 166.401 231.703 166.401 231.322C166.401 230.915 166.327 230.577 166.18 230.308C166.041 230.031 165.838 229.823 165.569 229.684C165.3 229.545 164.971 229.476 164.581 229.476C164.304 229.476 164.044 229.506 163.801 229.567C163.567 229.619 163.355 229.706 163.164 229.827C162.973 229.948 162.809 230.109 162.67 230.308L161.76 230.139L162.267 225.42H167.09V226.395H163.151L162.813 229.099L162.787 229.216H162.813C163.021 228.999 163.285 228.826 163.606 228.696C163.935 228.566 164.325 228.501 164.776 228.501C165.322 228.501 165.794 228.618 166.193 228.852C166.6 229.077 166.917 229.398 167.142 229.814C167.367 230.23 167.48 230.715 167.48 231.27C167.48 231.712 167.406 232.111 167.259 232.466C167.112 232.821 166.904 233.125 166.635 233.376C166.366 233.619 166.046 233.805 165.673 233.935C165.309 234.065 164.906 234.13 164.464 234.13Z" fill="#EFEFEF"/>
    <path d="M150.989 101.42H157.307V102.395C156.587 103.158 155.998 103.942 155.539 104.748C155.088 105.545 154.759 106.377 154.551 107.244C154.343 108.111 154.239 109.029 154.239 110H153.173C153.173 109.038 153.29 108.098 153.524 107.179C153.766 106.252 154.13 105.363 154.616 104.514C155.101 103.665 155.703 102.872 156.423 102.135L156.592 102.395H150.989V101.42ZM158.241 108.44C158.492 108.44 158.696 108.518 158.852 108.674C159.008 108.83 159.086 109.034 159.086 109.285C159.086 109.536 159.008 109.74 158.852 109.896C158.696 110.052 158.492 110.13 158.241 110.13C157.989 110.13 157.786 110.052 157.63 109.896C157.474 109.74 157.396 109.536 157.396 109.285C157.396 109.034 157.474 108.83 157.63 108.674C157.786 108.518 157.989 108.44 158.241 108.44ZM163.696 110.13C162.933 110.13 162.318 109.957 161.85 109.61C161.391 109.263 161.035 108.782 160.784 108.167L161.798 107.634C161.937 108.085 162.149 108.453 162.435 108.739C162.73 109.016 163.159 109.155 163.722 109.155C164.121 109.155 164.459 109.081 164.736 108.934C165.022 108.787 165.243 108.579 165.399 108.31C165.555 108.033 165.633 107.703 165.633 107.322C165.633 106.915 165.559 106.577 165.412 106.308C165.273 106.031 165.07 105.823 164.801 105.684C164.532 105.545 164.203 105.476 163.813 105.476C163.536 105.476 163.276 105.506 163.033 105.567C162.799 105.619 162.587 105.706 162.396 105.827C162.205 105.948 162.041 106.109 161.902 106.308L160.992 106.139L161.499 101.42H166.322V102.395H162.383L162.045 105.099L162.019 105.216H162.045C162.253 104.999 162.517 104.826 162.838 104.696C163.167 104.566 163.557 104.501 164.008 104.501C164.554 104.501 165.026 104.618 165.425 104.852C165.832 105.077 166.149 105.398 166.374 105.814C166.599 106.23 166.712 106.715 166.712 107.27C166.712 107.712 166.638 108.111 166.491 108.466C166.344 108.821 166.136 109.125 165.867 109.376C165.598 109.619 165.278 109.805 164.905 109.935C164.541 110.065 164.138 110.13 163.696 110.13Z" fill="#EFEFEF"/> -->
    
    <!-- alerts -->
    <line x1="8" y1="119" x2="62" y2="119" stroke="#FF910F" stroke-width="2"/>
    <line x1="8" y1="79" x2="62" y2="79" stroke="#FF0000" stroke-width="2"/>
    
    <!-- label -->
    <!-- <path d="M93.948 20.425H101.886V22H92.268V8.14H93.948V20.425ZM110.636 15.217C110.636 14.433 110.426 13.831 110.006 13.411C109.586 12.977 108.991 12.76 108.221 12.76C107.493 12.76 106.877 12.921 106.373 13.243C105.869 13.551 105.498 14.055 105.26 14.755L103.895 13.915C104.175 13.131 104.693 12.501 105.449 12.025C106.205 11.535 107.143 11.29 108.263 11.29C109.019 11.29 109.705 11.423 110.321 11.689C110.937 11.941 111.42 12.333 111.77 12.865C112.134 13.383 112.316 14.055 112.316 14.881V19.963C112.316 20.467 112.582 20.719 113.114 20.719C113.38 20.719 113.639 20.684 113.891 20.614L113.807 21.937C113.527 22.077 113.163 22.147 112.715 22.147C112.309 22.147 111.945 22.07 111.623 21.916C111.301 21.762 111.049 21.531 110.867 21.223C110.685 20.901 110.594 20.502 110.594 20.026V19.816L111.014 19.879C110.846 20.425 110.559 20.873 110.153 21.223C109.747 21.559 109.292 21.811 108.788 21.979C108.284 22.133 107.787 22.21 107.297 22.21C106.681 22.21 106.107 22.105 105.575 21.895C105.043 21.685 104.616 21.37 104.294 20.95C103.986 20.516 103.832 19.984 103.832 19.354C103.832 18.57 104.091 17.926 104.609 17.422C105.141 16.904 105.876 16.554 106.814 16.372L110.972 15.553V16.939L107.591 17.632C106.905 17.772 106.394 17.968 106.058 18.22C105.722 18.472 105.554 18.822 105.554 19.27C105.554 19.704 105.722 20.061 106.058 20.341C106.408 20.607 106.898 20.74 107.528 20.74C107.934 20.74 108.319 20.691 108.683 20.593C109.061 20.481 109.397 20.32 109.691 20.11C109.985 19.886 110.216 19.613 110.384 19.291C110.552 18.955 110.636 18.563 110.636 18.115V15.217ZM121.543 22.21C120.955 22.21 120.409 22.105 119.905 21.895C119.401 21.685 118.967 21.391 118.603 21.013C118.239 20.635 117.966 20.208 117.784 19.732L118.015 19.438L117.868 22H116.398V6.67H118.078V13.873L117.868 13.558C118.148 12.9 118.617 12.361 119.275 11.941C119.947 11.507 120.71 11.29 121.564 11.29C122.432 11.29 123.23 11.507 123.958 11.941C124.686 12.375 125.267 12.998 125.701 13.81C126.135 14.622 126.352 15.602 126.352 16.75C126.352 17.884 126.128 18.864 125.68 19.69C125.246 20.502 124.665 21.125 123.937 21.559C123.209 21.993 122.411 22.21 121.543 22.21ZM121.375 20.74C122.411 20.74 123.216 20.376 123.79 19.648C124.378 18.92 124.672 17.954 124.672 16.75C124.672 15.546 124.385 14.58 123.811 13.852C123.237 13.124 122.432 12.76 121.396 12.76C120.738 12.76 120.157 12.928 119.653 13.264C119.163 13.6 118.778 14.069 118.498 14.671C118.218 15.273 118.078 15.98 118.078 16.792C118.078 17.59 118.211 18.29 118.477 18.892C118.757 19.48 119.142 19.935 119.632 20.257C120.136 20.579 120.717 20.74 121.375 20.74ZM133.953 22.21C132.959 22.21 132.07 21.993 131.286 21.559C130.516 21.125 129.914 20.502 129.48 19.69C129.046 18.864 128.829 17.884 128.829 16.75C128.829 15.616 129.046 14.643 129.48 13.831C129.914 13.005 130.509 12.375 131.265 11.941C132.021 11.507 132.882 11.29 133.848 11.29C134.828 11.29 135.661 11.5 136.347 11.92C137.047 12.34 137.579 12.914 137.943 13.642C138.307 14.356 138.489 15.161 138.489 16.057C138.489 16.295 138.482 16.512 138.468 16.708C138.454 16.904 138.433 17.079 138.405 17.233H129.921V15.742H137.67L136.809 15.91C136.809 14.902 136.529 14.125 135.969 13.579C135.423 13.033 134.702 12.76 133.806 12.76C133.12 12.76 132.525 12.921 132.021 13.243C131.531 13.551 131.146 14.006 130.866 14.608C130.6 15.196 130.467 15.91 130.467 16.75C130.467 17.576 130.607 18.29 130.887 18.892C131.167 19.494 131.559 19.956 132.063 20.278C132.581 20.586 133.197 20.74 133.911 20.74C134.681 20.74 135.304 20.593 135.78 20.299C136.27 20.005 136.662 19.606 136.956 19.102L138.279 19.879C138.013 20.355 137.67 20.768 137.25 21.118C136.844 21.468 136.361 21.741 135.801 21.937C135.255 22.119 134.639 22.21 133.953 22.21ZM143.28 6.67V19.333C143.28 19.865 143.378 20.236 143.574 20.446C143.77 20.642 144.085 20.74 144.519 20.74C144.799 20.74 145.03 20.719 145.212 20.677C145.394 20.635 145.639 20.558 145.947 20.446L145.674 21.916C145.45 22.014 145.205 22.084 144.939 22.126C144.673 22.182 144.4 22.21 144.12 22.21C143.266 22.21 142.629 21.979 142.209 21.517C141.803 21.055 141.6 20.348 141.6 19.396V6.67H143.28Z" fill="#EFEFEF"/> -->

    <!-- reference -->
    <!-- <g filter="url(#filter1_d_1064_2051)">
        <rect width="80" height="30" rx="4" fill="#343453"/>
        <rect x="0.25" y="0.25" width="79.5" height="29.5" rx="3.75" stroke="#27273E" stroke-width="0.5"/>
        <path d="M27.2858 7.93C28.5598 7.93 29.6238 8.203 30.4778 8.749C31.3458 9.281 31.9968 10.072 32.4308 11.122C32.8648 12.172 33.0818 13.474 33.0818 15.028C33.0818 16.708 32.8298 18.08 32.3258 19.144C31.8358 20.194 31.1568 20.971 30.2888 21.475C29.4208 21.965 28.4198 22.21 27.2858 22.21C26.0818 22.21 25.0318 21.972 24.1358 21.496C23.2538 21.006 22.5958 20.236 22.1618 19.186L25.3958 17.905C25.5078 18.395 25.7178 18.78 26.0258 19.06C26.3478 19.34 26.7888 19.48 27.3488 19.48C27.7828 19.48 28.1608 19.396 28.4828 19.228C28.8048 19.046 29.0638 18.787 29.2598 18.451C29.4698 18.115 29.6238 17.709 29.7218 17.233C29.8198 16.743 29.8688 16.183 29.8688 15.553C29.8688 15.497 29.8688 15.448 29.8688 15.406C29.8688 15.35 29.8688 15.287 29.8688 15.217H29.8058C29.6518 15.637 29.3998 15.98 29.0498 16.246C28.6998 16.512 28.3008 16.715 27.8528 16.855C27.4048 16.981 26.9428 17.044 26.4668 17.044C25.5988 17.044 24.8218 16.869 24.1358 16.519C23.4638 16.155 22.9388 15.651 22.5608 15.007C22.1828 14.349 21.9938 13.586 21.9938 12.718C21.9938 11.724 22.2108 10.877 22.6448 10.177C23.0928 9.463 23.7088 8.91 24.4928 8.518C25.2908 8.126 26.2218 7.93 27.2858 7.93ZM27.2858 10.702C26.6838 10.702 26.2008 10.87 25.8368 11.206C25.4868 11.542 25.3118 12.018 25.3118 12.634C25.3118 13.194 25.4938 13.635 25.8578 13.957C26.2218 14.265 26.6978 14.419 27.2858 14.419C27.6638 14.419 27.9998 14.342 28.2938 14.188C28.6018 14.034 28.8398 13.824 29.0078 13.558C29.1758 13.278 29.2598 12.949 29.2598 12.571C29.2598 12.179 29.1758 11.85 29.0078 11.584C28.8398 11.304 28.6018 11.087 28.2938 10.933C27.9998 10.779 27.6638 10.702 27.2858 10.702ZM40.2302 22.21C38.7462 22.21 37.5072 21.923 36.5132 21.349C35.5332 20.761 34.8542 19.907 34.4762 18.787L37.7942 17.359C37.8642 17.863 37.9902 18.269 38.1722 18.577C38.3682 18.871 38.6272 19.088 38.9492 19.228C39.2712 19.354 39.6492 19.417 40.0832 19.417C40.4752 19.417 40.8042 19.354 41.0702 19.228C41.3502 19.088 41.5672 18.892 41.7212 18.64C41.8752 18.388 41.9522 18.087 41.9522 17.737C41.9522 17.373 41.8752 17.079 41.7212 16.855C41.5812 16.631 41.3712 16.47 41.0912 16.372C40.8252 16.274 40.4962 16.225 40.1042 16.225C39.9222 16.225 39.7542 16.232 39.6002 16.246C39.4462 16.246 39.2712 16.26 39.0752 16.288V13.936C39.1872 13.95 39.2992 13.964 39.4112 13.978C39.5232 13.978 39.6562 13.978 39.8102 13.978C40.4682 13.978 40.9372 13.845 41.2172 13.579C41.5112 13.299 41.6582 12.865 41.6582 12.277C41.6582 11.773 41.5112 11.388 41.2172 11.122C40.9372 10.856 40.5382 10.723 40.0202 10.723C39.4742 10.723 39.0262 10.87 38.6762 11.164C38.3262 11.444 38.1022 11.927 38.0042 12.613L34.8332 11.521C34.9872 10.751 35.3162 10.1 35.8202 9.568C36.3242 9.036 36.9542 8.63 37.7102 8.35C38.4802 8.07 39.3272 7.93 40.2512 7.93C41.3152 7.93 42.2112 8.084 42.9392 8.392C43.6672 8.7 44.2202 9.141 44.5982 9.715C44.9762 10.289 45.1652 10.961 45.1652 11.731C45.1652 12.333 45.0672 12.837 44.8712 13.243C44.6892 13.649 44.4512 13.978 44.1572 14.23C43.8772 14.482 43.5902 14.671 43.2962 14.797C43.0022 14.909 42.7572 14.979 42.5612 15.007V15.07C42.8132 15.07 43.1002 15.119 43.4222 15.217C43.7442 15.315 44.0592 15.476 44.3672 15.7C44.6752 15.91 44.9272 16.204 45.1232 16.582C45.3332 16.96 45.4382 17.429 45.4382 17.989C45.4382 18.857 45.2072 19.606 44.7452 20.236C44.2972 20.866 43.6812 21.356 42.8972 21.706C42.1132 22.042 41.2242 22.21 40.2302 22.21ZM47.6174 22V19.69C48.8074 18.948 49.8224 18.255 50.6624 17.611C51.5024 16.967 52.1814 16.358 52.6994 15.784C53.2314 15.21 53.6234 14.664 53.8754 14.146C54.1274 13.628 54.2534 13.124 54.2534 12.634C54.2534 12.102 54.0924 11.661 53.7704 11.311C53.4624 10.947 53.0004 10.765 52.3844 10.765C51.7264 10.765 51.2154 11.01 50.8514 11.5C50.4874 11.976 50.2914 12.676 50.2634 13.6L47.1764 12.655C47.2044 11.619 47.4494 10.751 47.9114 10.051C48.3874 9.351 49.0314 8.826 49.8434 8.476C50.6554 8.112 51.5794 7.93 52.6154 7.93C53.5254 7.93 54.3094 8.063 54.9674 8.329C55.6394 8.581 56.1854 8.924 56.6054 9.358C57.0254 9.778 57.3334 10.254 57.5294 10.786C57.7394 11.304 57.8444 11.836 57.8444 12.382C57.8444 13.278 57.6134 14.118 57.1514 14.902C56.6894 15.672 56.0174 16.421 55.1354 17.149C54.2674 17.863 53.2104 18.584 51.9644 19.312V19.333C52.2024 19.319 52.4824 19.305 52.8044 19.291C53.1264 19.277 53.4624 19.27 53.8124 19.27C54.1624 19.256 54.4774 19.249 54.7574 19.249H58.0124V22H47.6174Z" fill="#EFEFEF"/>
    </g> -->
    <defs>
        <filter id="filter0_d_1064_2051" x="11" y="15" width="55" height="255" filterUnits="userSpaceOnUse" color-interpolation-filters="sRGB">
            <feFlood flood-opacity="0" result="BackgroundImageFix"/>
            <feColorMatrix in="SourceAlpha" type="matrix" values="0 0 0 0 0 0 0 0 0 0 0 0 0 0 0 0 0 0 127 0" result="hardAlpha"/>
            <feOffset dx="5" dy="5"/>
            <feComposite in2="hardAlpha" operator="out"/>
            <feColorMatrix type="matrix" values="0 0 0 0 0.0392157 0 0 0 0 0.0392157 0 0 0 0 0.0392157 0 0 0 0.5 0"/>
            <feBlend mode="normal" in2="BackgroundImageFix" result="effect1_dropShadow_1064_2051"/>
            <feBlend mode="normal" in="SourceGraphic" in2="effect1_dropShadow_1064_2051" result="shape"/>
        </filter>
        <filter id="filter1_d_1064_2051" x="0" y="0" width="82" height="32" filterUnits="userSpaceOnUse" color-interpolation-filters="sRGB">
            <feFlood flood-opacity="0" result="BackgroundImageFix"/>
            <feColorMatrix in="SourceAlpha" type="matrix" values="0 0 0 0 0 0 0 0 0 0 0 0 0 0 0 0 0 0 127 0" result="hardAlpha"/>
            <feOffset dx="2" dy="2"/>
            <feComposite in2="hardAlpha" operator="out"/>
            <feColorMatrix type="matrix" values="0 0 0 0 0.0392157 0 0 0 0 0.0392157 0 0 0 0 0.0392157 0 0 0 0.5 0"/>
            <feBlend mode="normal" in2="BackgroundImageFix" result="effect1_dropShadow_1064_2051"/>
            <feBlend mode="normal" in="SourceGraphic" in2="effect1_dropShadow_1064_2051" result="shape"/>
        </filter>
        <linearGradient id="paint0_linear_1064_2051" x1="116" y1="227" x2="116" y2="295" gradientUnits="userSpaceOnUse">
            <stop stop-color="#343453"/>
            <stop offset="1" stop-color="#7474B9"/>
        </linearGradient>
    </defs>
</svg>
